# xmcd
#
# Track frame offsets:
#	150
#	16694
#	40028
#	71013
#	105739
#	126257
#	149191
#	184249
#	203531
#
# Disc length: 3044 seconds
# Revision: 0
# Processed by: cddbd v1.5.2PL0 Copyright (c) Steve Scherf et al.
# Submitted via: dBpowerAMP V12.0
#
DISCID=7f0be209
DTITLE=Khánh Hà - Gửi Gió Cho Mây Ngàn Bay
DYEAR=2007
DGENRE=Việt
TTITLE0=Tình nghệ sĩ
TTITLE1=Chiều tím
TTITLE2=Giọt mưa thu
TTITLE3=Gợi giấc mơ xưa
TTITLE4=Gửi gió cho mây ngàn bay
TTITLE5=Hướng về Hà Nội
TTITLE6=Lá thư
TTITLE7=Mơ hoa
TTITLE8=Nửa hồn thương đau
EXTD=
EXTT0=
EXTT1=
EXTT2=
EXTT3=
EXTT4=
EXTT5=
EXTT6=
EXTT7=
EXTT8=
PLAYORDER=
